<?xml version="1.0" encoding="utf-8"?>
<!-- Generator: Adobe Illustrator 28.0.0, SVG Export Plug-In . SVG Version: 6.00 Build 0)  -->
<svg version="1.1" id="Layer_1" xmlns="http://www.w3.org/2000/svg" xmlns:xlink="http://www.w3.org/1999/xlink" x="0px" y="0px"
	 viewBox="0 0 1366 768" style="enable-background:new 0 0 1366 768;" xml:space="preserve">
<image style="overflow:visible;" width="4032" height="3024" xlink:href="15C6F1A6D90739E.jpg"  transform="matrix(-4.317874e-17 0.2351 -0.2351 -4.317874e-17 -128.356 -89.869)">
</image>
<path d="M510,213.8c-2,1.4-3.7,3.4-4.9,5.4c-2.7,4.5-4.4,9.9-8.4,13.2c-8.7,7.3-15.6-2.9-18.3-9.9c-3.8-9.8-5.4-20-13.9-27.1
	c-10-8.3-24.5-11.1-36.6-6.2c-12,4.9-20.6,17.6-19.9,30.6c0.7,12.8,9.4,23.6,16.1,34.6c9,15,14.6,31.7,20.2,48.3
	c3.8,11.4,7.6,23.1,7.2,35.1c-0.4,10.7-4.3,21.3-2.6,31.8c2.5,16.4,19.3,28.8,35.9,27.7c16.5-1.1,31.1-14.5,34.9-30.7
	c1.1-4.8,1.4-9.9,3-14.6c1.6-4.7,4.8-9.3,9.5-10.7c6.6-1.9,13.6,3,16.4,9.2c2.9,6.2,2.7,13.3,2.8,20.2c0.1,6.8,0.5,14.1,4.3,19.8
	c6.9,10.3,22.8,11.1,33.2,4.5c10.4-6.7,16.3-18.6,19.8-30.5c7.6-26,6.4-54.5-3.5-79.7c-4.9-12.5-11.8-24-16.8-36.4s-8.1-26.2-5-39.2
	c3.1-12.7,11.6-23.2,17.7-34.7c6.1-11.5,9.7-26.2,2.6-37.2c-7.4-11.5-24.6-13.8-36.6-7.1c-11.9,6.7-18.8,20.1-20.9,33.7
	c-2.1,13.5,0,27.3,2.2,40.8c1.1,6.7,2.1,13.8-0.6,20c-2.7,6.2-10.9,10.4-16.5,6.6c-6.7-4.5-5.7-16.8-13.4-19.2
	C515.1,211.3,512.3,212.1,510,213.8z"/>
<path d="M746.6,113.8c-10.3,13.3,5.2,20.4,12.2,29.8c10.1,13.6,15.7,30.6,15.2,47.5c-0.5,14.4-5,28.3-6.8,42.6
	c-1.8,14.3-0.4,30.1,9.2,40.8c9.2,10.3,24.6,13.6,38.1,10.6c13.5-3,25.3-11.4,34.8-21.4c5.8-6.1,11-13.1,12.7-21.4
	c1.7-8.5-1.6-23.7-12.9-21.1c-9.5,2.2-18.9,11.8-27.3,16.8c-5.8,3.4-16.2,15-23.6,13.2c-10.2-2.4-8.2-25.2-6.6-32.7
	c2.6-11.8,8-22.8,10.6-34.6c3.9-17.3,1.6-35.8-6.5-51.6c-4.9-9.6-12.3-18.5-22.3-22.6c-6.6-2.7-14.7-2.9-21.3,0
	C749.5,110.9,747.8,112.2,746.6,113.8z"/>
<path d="M862.3,82.5c-1.2-0.8-2.4-1.4-3.7-1.9c-6.6-2.6-14.5-1.4-20.1,3c-16.7,13.3-11.9,51.1-2.8,67c8,14,20,25.3,30.4,37.6
	c10.5,12.3,19.9,26.5,21.4,42.6c1.6,18.4-7.6,36.3-20,50.1c-12.4,13.8-27.8,24.4-41.7,36.5c-20.2,17.4-38.1,39.3-43.4,65.4
	c-5.3,26.1,5.4,56.7,29.6,68c17.5,8.1,38,5,57,1.6c24.9-4.4,49.9-8.7,74.8-13.1c14.5-2.5,29.8-5.4,40.7-15.2
	c11-9.8,15-28.9,4.3-38.9c-10.3-9.7-27.1-5.9-39.6,0.8c-11.8,6.3-22.5,14.7-34,21.6c-11.5,6.9-24.3,12.6-37.7,12.6
	s-27.5-6.6-33.2-18.8c-6.7-14.4-0.3-31.6,8.5-44.8c15.7-23.5,38.2-41.4,56.5-63c18.3-21.5,32.8-49.5,27.1-77.2
	c-7.3-35.4-44.4-57.7-55.5-92.1c-2.6-8.1-3.7-16.7-6.5-24.7C872.1,92.8,868.1,86.3,862.3,82.5z"/>
<path d="M544.4,415.1c12.4,3.6,23.5,10.5,34.5,17.4c9.4,5.9,19.5,12.6,22.9,23.1c3.4,10.6-0.8,22-5.1,32.3
	c-7.5,18.3-15,36.6-22.5,54.9c-3.9,9.6-7.9,20.3-4.4,30.1c3.4,9.5,13.1,15.5,17.7,24.5c6.6,12.8,0.7,30.1-11.6,37.5
	c-12.4,7.4-29.2,5.4-40.5-3.6c-11.3-8.9-17.2-23.7-17.1-38.1c0.1-5.5,0.9-10.9,0.5-16.4c-0.5-5.4-2.5-11.1-6.9-14.3
	c-5-3.6-12-3.2-17.4-0.3s-9.4,7.9-12.6,13.1c-7.7,12.6-11.5,27.2-19.3,39.7s-22.1,23-36.4,19.7c-13-3-21.5-16.9-21.3-30.2
	c0.2-13.3,7.4-25.7,16.6-35.4c9.2-9.7,20.3-17.2,30.7-25.6s20.3-18,25.6-30.2c6.9-15.7,5.4-33.6,6.9-50.6
	c1.2-14.2,5.4-29.8,16.8-39.3c8.9-7.4,18.4-10.9,28.8-10.8C534.7,412.9,539.4,413.7,544.4,415.1z M551.1,446.8
	c-6.8-5.4-14.6-12-23.2-8.2c-6.9,3.1-11.6,10.1-14.7,16.9c-2.3,5.2-1.9,11.2-2,16.8c-0.2,6-0.2,12-0.5,18c-0.2,4.4-0.3,9.3-2,13.4
	c-1.9,4.7-4.6,9.1-7.3,13.3c-1.8,2.8-7.4,7-7.4,10.5c-0.1,5.6,7.7,3.4,10.7,2.6c5.8-1.5,9.9-6.3,15.5-8.3c6.4-2.3,7.4,3.4,9.3,8.1
	c1.1,2.7,3.4,4.9,5.9,6.5c7.6,4.7,15.5,0.1,20.9-5.7c6.5-7.1,10.6-16.4,14-25.3c3.8-10,6.7-20.3,8.7-30.8c1.1-5.9,3.3-13.1,1.2-19
	c-2.5-7-9.3-4.2-14.8-3.2c-4,0.8-6.1,0.1-9.5-2.2C554.4,449.3,552.8,448.1,551.1,446.8z"/>
<path d="M614.4,421.9c3.3-3.9,22-3.9,27.5-5.2c9.2-2.3,18.3-5.1,27.5-7.5c18.4-4.7,38.5-7.3,55.9,0.3c18.4,7.9,31.1,27.4,31,47.4
	c-0.1,20-12.9,39.4-31.3,47.2c-5.6,2.4-11.7,3.8-17,6.8c-5.3,3-10.1,8.1-10.3,14.2c-0.2,4.9,2.7,9.6,6.6,12.8
	c3.8,3.1,8.6,5,13.2,6.6c11.1,3.9,22.5,6.9,33.3,11.7s21,11.6,27.6,21.3c6.6,9.7,9.1,22.8,4.3,33.5c-4.8,10.7-17.9,17.7-29,13.8
	c-15.8-5.6-19.4-27.4-33.6-36.2c-6.3-3.9-14.4-4.8-21.5-2.3c-7,2.5-12.8,8.3-15.2,15.3c-2.6,7.6-1.4,15.9-3.5,23.7
	c-2.5,9.4-10.2,17.4-19.7,19.7c-9.5,2.3-20.3-1.5-25.9-9.4c-1.9-2.7-3.2-5.7-4.4-8.7c-3-7.1-6-14.2-9-21.3c-4.4-10.5-9-21.3-10-32.6
	c-3.3-34.6,25.3-67.7,17.3-101.5c-2.3-9.9-21.5-39.4-13.8-49.2C614.3,422.1,614.4,422,614.4,421.9z M731.4,450.5
	c-2.4-4.9-5.8-9.4-10-12.9c-9.8-8.2-23.1-11.5-35.8-10.4c-9.5,0.8-30.7,5.4-36,14.6c-2.9,5-0.7,15.4-0.7,21
	c0.1,7.6,0.1,15.3,0.2,22.9c0,4.5,0.1,9.1,1.9,13.3c4.4,10.3,18.8,13.5,28.7,8.2c11-5.9,17.6-19.8,29.9-21.4
	c5.3-0.7,10.9,1.1,15.9-0.9c5.2-2.1,8.1-7.7,9.1-13.2C735.8,464.5,734.5,457.1,731.4,450.5z"/>
<path d="M815.9,478.8c14.2,2,27.3,10.3,34.4,22c5.9,9.7,7.6,21,9.3,32c2.8,19,5.6,38,8.5,57c2.4,16.1,4.1,34.5-7.3,46.9
	c-6.1,6.5-15.1,10.2-24.2,11.8c-9.1,1.6-18.5,1.3-27.8,0.9c-4.1-0.1-8.4-0.3-12.2-1.8c-3.8-1.5-7.2-4.6-7.6-8.4
	c-0.5-4.5,3-8.4,5.8-12.1c9.2-12.2,12.8-28,9.7-42.6c-3.6-16.7-15-30.7-23.4-45.8c-7.1-12.6-14.7-32.4-6.2-46.1
	c4.3-7,13.2-11.2,22.6-13.1C803.7,478.3,810.4,478.1,815.9,478.8z M813,505.1c-11.6,8.5-1,31.5,2.6,41.5
	c4.7,12.7,10.1,25.3,11.7,38.7c0.9,7.1-0.3,14-2.6,20.7c-1.3,3.7-7.7,11.7-7.2,15.2c2,13,28.3,1.5,31.9-5.3
	c4.1-7.5,2.7-16.5,1.3-24.8c-3.7-22-7.5-43.9-11.2-65.9c-0.4-2.6-1.4-5.9-2.7-9.1C832.7,506.3,824.5,496.7,813,505.1z"/>
<path d="M936.4,626.6c-15.4-2-29.6-10.3-37.2-22c-6.4-9.7-8.3-21-10-32c-3.1-19-6.1-38-9.2-57c-2.6-16.1-4.5-34.5,7.9-46.9
	c6.6-6.5,16.3-10.2,26.2-11.8c9.9-1.6,20.1-1.3,30.1-0.9c4.5,0.1,9,0.3,13.2,1.8s7.8,4.6,8.2,8.4c0.6,4.5-3.2,8.4-6.2,12.1
	c-10,12.2-13.9,28-10.5,42.6c3.9,16.7,16.3,30.7,25.4,45.8c7.7,12.6,15.9,32.4,6.7,46.1c-4.7,7-14.4,11.2-24.5,13.1
	C949.5,627.1,942.3,627.4,936.4,626.6z M939.5,600.3c12.6-8.5,1.1-31.5-2.8-41.5c-5.1-12.7-10.9-25.3-12.7-38.7
	c-0.9-7.1,0.3-14,2.8-20.7c1.4-3.7,8.3-11.7,7.8-15.2c-2.2-13-30.6-1.5-34.5,5.3c-4.4,7.5-3,16.5-1.4,24.8c4,22,8.1,43.9,12.1,65.9
	c0.5,2.6,1.5,5.9,3,9.1C918.2,599.1,927.1,608.7,939.5,600.3z"/>
<path d="M464.5,447c-0.2-0.4-0.5-0.6-0.8-0.8c-5.8-3.9-11.5,1-12.4,6.7c-3.1,18.6,8.1,36.3-3.8,53.3c-3.4,4.8-8.4,7.9-13.2,11.2
	c-3.2,2.2-8.8,7.5-5.4,12.1c4,5.4,20-4.6,24.6-6.8c10.8-5.2,14.1-15.8,15-27c0.5-6-0.1-11.8-1.7-17.6c-1.5-5.7-2.8-11-2.1-17
	C465.3,457.1,466.9,450.8,464.5,447z"/>
<path d="M712.1,353c1.1-3.3,1.6-6.7,1.1-10.2c-1.1-7.6-9.1-14.5-16.2-11.6c-5,2-7.5,7.6-8.2,12.9c-0.7,5.3-0.1,10.8-1.3,16
	c-2.3,9.8-10.7,17.2-20,20.8c-7.9,3-23.1,0.2-29.3,5.2c-9.6,7.6,3.6,15.8,11.2,16c11.9,0.2,23.7-4.2,33.4-11.2
	c9.7-7,17.4-16.4,23.8-26.5C708.7,360.8,710.8,357,712.1,353z"/>
<path d="M776.8,458.6c-0.2-0.2-0.5-0.5-0.8-0.6c-4.3-2.3-8.6,2.2-10,5.8c-2.1,5.4-2.9,11.2-5.5,16.5c-2.9,6.2-6.5,12.2-10.7,17.6
	c-1.6,2.1-3.4,4.2-5.5,6c-1.5,1.3-3.6,1.8-5.3,2.8c-3.4,1.9-6.8,4.4-9.3,7.4c-2.7,3.2-4.3,7.7-2.9,11.7c1.7,4.4,6.5,6.7,10.9,8.5
	c5.7,2.3,11.5,4.7,17.2,7c3.6,1.5,7.4,2.9,11.2,2.4c3.8-0.5,7.6-3.8,7.2-7.6c-0.3-3.1-3.2-5.4-6.1-6.6c-2.9-1.2-6.1-1.8-8.8-3.5
	c-7.5-4.7-7.6-16-3.5-23.7c4.1-7.8,11.3-13.5,16.7-20.4c2.8-3.6,5.1-7.8,6.1-12.3c0.5-2.2,0.7-4.5,0.5-6.7
	C778,461.4,777.8,459.7,776.8,458.6z"/>
<path d="M657.2,120.1c-2.7,10.6-12.8,17.9-16.7,28.3c-5,13.5-4.4,28.4-11.1,41.5c-3.1,6.2-7.9,11.9-14.3,14.4
	c-7.3,2.9-22.7,0.2-12.9-8c7.7-6.5,14.3-11.8,18-21.6c3.3-8.9,3.6-18.6,4.9-28c1.3-9.4,3.8-19.2,10.5-25.9c4-4,10.9-7,16.6-6.6
	C656.9,114.6,658,116.9,657.2,120.1z"/>
<path d="M929.7,378.5c-2.6,6.8-12.2,16.4-14.2,18.1c-8.1,7.2-18.7,12.1-29.7,12.2c-11,0.1-22.2-4.9-28.1-13.9
	c-12.6-19,6.8-41.8,20.7-54.5c3.9-3.6,9.2-7.1,14.2-5.1c5.5,2.2,6.2,10,3.1,14.8c-3.1,4.9-8.7,7.7-13.6,10.9
	c-5,3.2-9.9,7.5-10.4,13.3c-0.8,8,7.9,14.5,16.2,14.7c8.3,0.2,16-4.1,23-8.5c3.8-2.4,7.3-5.7,11.5-7.6
	C929.1,369.9,931.5,373.9,929.7,378.5z"/>
<path d="M685.5,331.2c-1.3,3.3-2,6.8-2.8,10.2c-2.4,10.3-5.3,21.2-13.2,28.2c-7.9,7-22.3,7.6-27.7-1.5c-4.5-7.6-0.7-17.2,1.9-25.7
	c5.1-17.1,4.4-35.8-1.8-52.5c-4.6-12.2-12-23.1-16.9-35.1c-5.5-13.4-8.2-31.7,2.7-42.8c12.2-12.4,19-25.7,25.9-41.6
	c7.4-17.2,17.6-35.6,35.4-41c17.1-5.2,36.4,4.5,45.8,19.7c9.4,15.2,10.1,34.5,5.8,51.9c-3.7,14.7-10.9,29.6-7.4,44.4
	c3.3,13.9,15.2,23.7,23.5,35.2c11.2,15.5,16.1,35.4,13.5,54.4c-1.4,10.2-5.3,20.7-13.3,27.2c-8,6.6-20.7,8-28.5,1.2
	c-7.2-6.3-8.1-16.9-10.4-26.2c-2.3-9.3-8.7-19.6-18.2-19c-5.2,0.3-9.6,4.1-12.3,8.5C686.8,328.2,686.1,329.7,685.5,331.2z
	 M722.8,196.8c2.5-9.9,4.5-19.9,2.3-29.8c-2.5-11.2-12-22.1-25.5-24.1c-9.3-1.4-20.1,2.7-22.6,10.3c-1.3,4-0.3,8.3-0.1,12.4
	c1,20.7-18.9,37.6-26.7,57.2c-1.4,3.5-2.4,7.2-1.9,10.9c1.6,10.2,21.6,15.6,32.1,17.3c8.7,1.4,18.4,0.1,24.7-5
	c5.7-4.7,7.7-11.5,9.4-18c2.4-9,4.8-18.1,7.2-27.1C722.1,199.5,722.5,198.1,722.8,196.8z"/>
<path d="M819.4,100.2c-6.1,19-4.1,40.7,6,58c2.2,3.8,4.9,7.5,6.5,11.6c1.7,4.1,2.2,8.9,0.3,13c-1.9,4-6.8,6.7-11,5.1
	c-5.5-2.2-6.3-9.5-6.5-15.5c-0.7-18.8-5.3-36.9-12.9-54c-3.9-8.8-2.2-12.8,4-20.3c3.5-4.2,7.5-10.2,13.4-10.8c0.8-0.1,2-0.2,2.6,0.4
	c0.9,0.8,0.3,2.4,0.1,3.4C821.2,94.1,820.4,97.1,819.4,100.2z"/>
<path d="M958.1,510.3c0.8,4.5,2.5,8.9,3.2,11.2c7,23.6,21,33.7,28,57.3c0.6,2.1,1.3,4.3,3,6c1.7,1.6,4.6,2.6,7.1,1.6
	c4.2-1.7,3.7-6.7,2.4-10.3c-7.7-20.9-22.3-28.3-30-49.1c-1.3-3.6-2.7-7.4-2.3-11.3c0.3-3.5,6.6-24.4-6.7-18.9
	C957.4,499,957.1,504.7,958.1,510.3z"/>
<path d="M465.4,182.5c1.8,0.3,3.4,1.4,5.1,4.6c4,7.5,7.7,15.1,10.8,23c1.6,3.5,3.4,7.1,6.7,9.3c3.3,2.2,8.5,2.2,10.7-1
	c2.2-3.3-0.1-7.8-3.2-10.4c-3.1-2.6-7-4.4-9.4-7.6c-2.4-3.3-2.8-7.6-4.1-11.4c-3.1-8.7-12-15.3-21.7-15.9c-2.7-0.2-6,0.4-7.1,2.8
	c-1.2,2.7,1.5,5.8,4.5,6.3C460.9,182.6,463.3,182.1,465.4,182.5z"/>
</svg>
