<?xml version="1.0" encoding="utf-8"?>
<!-- Generator: Adobe Illustrator 27.6.1, SVG Export Plug-In . SVG Version: 6.00 Build 0)  -->
<svg version="1.1" id="Layer_1" xmlns="http://www.w3.org/2000/svg" xmlns:xlink="http://www.w3.org/1999/xlink" x="0px" y="0px"
	 viewBox="0 0 500 500" style="enable-background:new 0 0 500 500;" xml:space="preserve">
<style type="text/css">
	.st0{fill:#E4242A;}
	.st1{fill:#FED95A;}
	.st2{fill:#BF812B;}
	.st3{fill:#4C3E3E;}
	.st4{fill:#FFF8D6;}
	.st5{fill:#FFFFFF;}
	.st6{fill:none;stroke:#8C6467;stroke-miterlimit:10;}
	.st7{fill:#991B1E;}
</style>
<path class="st0" d="M-494.3-60.5l-6.7,32.2h-0.2l-9.5-32.2h-18l-9.5,32.2h-0.2l-6.7-32.2h-33.1l0,0.1c-0.1,0-0.2,0-0.4,0
	c-5.8,0-11,1.4-15.4,3.9c-0.1-7.3-2.3-13.1-6.5-17.4c-4.4-4.4-11.3-6.6-20.9-6.6c-9.1,0.1-18,2-23.3,9.1c-4.1,5.4-3.3,13.1-3.4,20.1
	h-9.5v9.3l9.5,6.2l0,34.9l20.1-0.1V-36l8.5-6.3l0.1-8.9l-8.6-0.2c0-3.8-0.3-8.6,2.9-11c1.8-1.5,6.9-1.6,8.6,0.1
	c0.9,0.8,1.5,2.1,1.8,3.8c0.3,1.7,0.4,3.8,0.4,6.4c0,0,0,37.8,0,37.8c0.1,8.5,8.8,13.4,16.7,13.4l18.9,0c9.5,0,17.6-3,23-8.6
	l3.8,8.6h21.4l10.6-35.3h0.2L-509.1-1h21.6l14.4-59.5H-494.3z M-578.6-16.8c-6.5,0-10.1-4.8-10.1-12.6c0-8.2,3.6-12.9,10.1-12.9
	c6.4,0,10.1,4.8,10.1,12.9C-568.6-21.5-572.3-16.8-578.6-16.8z"/>
<rect x="-581.4" y="316.8" class="st0" width="37.8" height="37.8"/>
<rect x="-517.2" y="316.8" class="st1" width="37.8" height="37.8"/>
<rect x="-447.1" y="316.8" class="st2" width="37.8" height="37.8"/>
<rect x="-580.3" y="364.5" style="fill:none;" width="41.7" height="22.5"/>
<text transform="matrix(1 0 0 1 -580.2788 369.1753)"><tspan x="0" y="0" style="font-family:'MaisonNeueMono-Bold'; font-size:6.5778px;">Chili Red</tspan><tspan x="0" y="7.9" style="font-family:'MaisonNeueMono-Bold'; font-size:6.5778px;">#E4242A</tspan></text>
<rect x="-581.4" y="403.4" class="st3" width="37.8" height="37.8"/>
<rect x="-580.3" y="451.1" style="fill:none;" width="58.7" height="107.4"/>
<text transform="matrix(1 0 0 1 -580.2788 455.7827)"><tspan x="0" y="0" style="font-family:'MaisonNeueMono-Bold'; font-size:6.5778px;">Charcoal Black</tspan><tspan x="0" y="7.9" style="font-family:'MaisonNeueMono-Bold'; font-size:6.5778px;">#E4242A</tspan></text>
<rect x="-448.2" y="403.4" class="st4" width="37.8" height="37.8"/>
<rect x="-447.1" y="451.1" style="fill:none;" width="59.7" height="107.4"/>
<text transform="matrix(1 0 0 1 -447.0796 455.7827)"><tspan x="0" y="0" style="font-family:'MaisonNeueMono-Bold'; font-size:6.5778px;">Beige  </tspan><tspan x="0" y="7.9" style="font-family:'MaisonNeueMono-Bold'; font-size:6.5778px;">dressed</tspan><tspan x="0" y="15.8" style="font-family:'MaisonNeueMono-Bold'; font-size:6.5778px;">#FFF7D4</tspan></text>
<rect x="-516.7" y="362.9" style="fill:none;" width="70.7" height="107.4"/>
<text transform="matrix(1 0 0 1 -516.6938 367.5307)"><tspan x="0" y="0" style="font-family:'MaisonNeueMono-Bold'; font-size:6.5778px;">Honey Mustard</tspan><tspan x="0" y="7.9" style="font-family:'MaisonNeueMono-Bold'; font-size:6.5778px;">#FFD95A</tspan></text>
<rect x="-449.3" y="363.4" style="fill:none;" width="70.7" height="160.1"/>
<text transform="matrix(1 0 0 1 -449.272 368.0796)"><tspan x="0" y="0" style="font-family:'MaisonNeueMono-Bold'; font-size:6.5778px;">Salted Caramel</tspan><tspan x="0" y="7.9" style="font-family:'MaisonNeueMono-Bold'; font-size:6.5778px;">#FFD95A</tspan></text>
<rect x="-866.4" y="258.2" class="st0" width="145.4" height="37"/>
<rect x="-398.8" y="411.1" style="fill:none;" width="212.1" height="75.1"/>
<text transform="matrix(1 0 0 1 -398.8423 423.6616)"><tspan x="0" y="0" style="font-family:'MaisonNeueMono-Bold'; font-size:6.5778px;">rgb(255, 217, 90)</tspan><tspan x="0" y="7.9" style="font-family:'MaisonNeueMono-Bold'; font-size:6.5778px;">rgb(192, 127, 0)</tspan><tspan x="0" y="15.8" style="font-family:'MaisonNeueMono-Bold'; font-size:6.5778px;">rgb(76, 61, 61)</tspan></text>
<rect x="-1220.4" y="238.2" class="st5" width="354" height="221"/>
<rect x="-648.5" y="5.7" style="fill:none;" width="178.8" height="56.4"/>
<text transform="matrix(1 0 0 1 -648.4644 12.0418)" class="st3" style="font-family:'MaisonNeueMono-Bold'; font-size:8.9096px;">Graphic Design and Pink Mayo</text>
<path class="st6" d="M-611.9-42"/>
<path class="st6" d="M-484.8-15.4"/>
<rect x="-594" y="627.2" class="st3" width="289.1" height="24.7"/>
<g>
	<rect x="-643.9" y="195.8" class="st3" width="168.1" height="14.3"/>
	<rect x="-631.8" y="200.1" style="fill:none;" width="173.7" height="54.8"/>
	<text transform="matrix(1 0 0 1 -631.7513 205.4319)" class="st4" style="font-family:'MaisonNeueMono-Bold'; font-size:7.56px;">Graphic Design and Pink Mayo</text>
</g>
<path class="st0" d="M-500,140l-6.3,30.1h-0.2l-8.9-30.1h-16.8l-8.9,30.1h-0.2l-6.3-30.1h-31l0,0.1c-0.1,0-0.2,0-0.3,0
	c-5.4,0-10.3,1.3-14.4,3.6c-0.1-6.8-2.1-12.2-6.1-16.3c-4.1-4.1-10.6-6.2-19.6-6.2c-8.5,0.1-16.8,1.9-21.7,8.5
	c-3.9,5.1-3.1,12.3-3.2,18.7h-8.9v8.7l8.9,5.8l0,32.6l18.8-0.1v-32.6l7.9-5.9l0.1-8.3l-8-0.2c0-3.6-0.3-8.1,2.7-10.3
	c1.7-1.4,6.4-1.5,8.1,0.1c0.9,0.8,1.4,1.9,1.7,3.5c0.3,1.6,0.4,3.6,0.4,6c0,0,0,35.4,0,35.4c0.1,7.9,8.2,12.5,15.6,12.5l17.6,0
	c8.9,0,16.4-2.8,21.5-8.1l3.6,8.1h20l9.9-32.9h0.2l9.9,32.9h20.1l13.4-55.6H-500z M-578.8,180.8c-6.1,0-9.4-4.4-9.4-11.8
	c0-7.7,3.3-12,9.4-12c6,0,9.4,4.4,9.4,12C-569.4,176.4-572.8,180.8-578.8,180.8z"/>
<path class="st0" d="M-496.8,239.5l-6.3,30.1h-0.2l-8.9-30.1h-16.8l-8.9,30.1h-0.2l-6.3-30.1h-31l0,0.1c-0.1,0-0.2,0-0.3,0
	c-5.4,0-10.3,1.3-14.4,3.6c-0.1-6.8-2.1-12.2-6.1-16.3c-4.1-4.1-10.6-6.2-19.6-6.2c-8.5,0.1-16.8,1.9-21.7,8.5
	c-3.9,5.1-3.1,12.3-3.2,18.7h-8.9v8.7l8.9,5.8l0,32.6l18.8-0.1v-32.6l7.9-5.9l0.1-8.3l-8-0.2c0-3.6-0.3-8.1,2.7-10.3
	c1.7-1.4,6.4-1.5,8.1,0.1c0.9,0.8,1.4,1.9,1.7,3.5c0.3,1.6,0.4,3.6,0.4,6c0,0,0,35.4,0,35.4c0.1,7.9,8.2,12.5,15.6,12.5l62.8,0
	l9.9-32.9h0.2l9.9,32.9h20.1l13.4-55.6H-496.8z M-575.6,280.4c-6.1,0-9.4-4.4-9.4-11.8c0-7.7,3.3-12,9.4-12c6,0,9.4,4.4,9.4,12
	C-566.3,275.9-569.7,280.4-575.6,280.4z"/>
<path class="st0" d="M-156.9-53.5l-6.7,32.2h-0.2l-9.5-32.2h-18l-9.5,32.2h-0.2l-6.7-32.2H-241l0,0.1c-0.1,0-0.2,0-0.4,0
	c-5.8,0-11,1.4-15.4,3.9c-0.1-7.3-2.3-13.1-6.5-17.4c-4.4-4.4-11.3-6.6-20.9-6.6c-9.1,0.1-18,2-23.3,9.1c-4.1,5.4-3.3,13.1-3.4,20.1
	h-9.5v9.3l9.5,6.2l0,34.9l20.1-0.1v-34.9l8.5-6.3l0.1-8.9l-8.6-0.2c0-3.8-0.3-8.6,2.9-11c1.8-1.5,6.9-1.6,8.6,0.1
	c0.9,0.8,1.5,2.1,1.8,3.8c0.3,1.7,0.4,3.8,0.4,6.4c0,0,0,37.8,0,37.8C-276.8,1-268.2,6-260.2,6l18.9,0c9.5,0,17.6-3,23-8.6l3.8,8.6
	h21.4l10.6-35.3h0.2L-171.7,6h21.6l14.4-59.5H-156.9z M-241.2-9.8c-6.5,0-10.1-4.8-10.1-12.6c0-8.2,3.6-12.9,10.1-12.9
	c6.4,0,10.1,4.8,10.1,12.9C-231.2-14.6-234.8-9.8-241.2-9.8z"/>
<rect x="-231.9" y="9.4" style="fill:none;" width="178.8" height="56.4"/>
<text transform="matrix(1 0 0 1 -231.8953 15.7058)"><tspan x="0" y="0" class="st3" style="font-family:'MaisonNeueMono-Bold'; font-size:8.9096px;">Graphic Design  </tspan><tspan x="0" y="10.7" class="st3" style="font-family:'MaisonNeueMono-Bold'; font-size:8.9096px;">and Pink Mayo</tspan></text>
<path class="st6" d="M-274.5-35.1"/>
<path class="st3" d="M-136.5,6L-136.5,6c-2.8,0-5.1-2.3-5.1-5.1v0c0-2.8,2.3-5.1,5.1-5.1h0c2.8,0,5.1,2.3,5.1,5.1v0
	C-131.4,3.7-133.7,6-136.5,6z"/>
<path class="st7" d="M-744.7,218.5h-37c-6.6,0-12-5.4-12-12v-99c0-6.6,5.4-12,12-12h37c6.6,0,12,5.4,12,12v99
	C-732.7,213.1-738.1,218.5-744.7,218.5z"/>
<g>
	<path class="st0" d="M361.4,218.2l-10.9,52h-0.4l-15.4-52h-29l-15.4,52h-0.4l-10.9-52h-53.5l0,0.1c-0.2,0-0.4,0-0.6,0
		c-9.3,0-17.8,2.3-24.9,6.3c-0.1-11.7-3.6-21.1-10.6-28.1c-7.1-7.1-18.3-10.7-33.8-10.7c-14.7,0.1-29.1,3.3-37.5,14.7
		c-6.7,8.8-5.4,21.2-5.5,32.4H97.5v15l15.3,10l0,56.4l32.5-0.2v-56.4l13.7-10.2l0.2-14.4l-13.9-0.3c0-6.2-0.6-13.9,4.7-17.8
		c2.9-2.4,11.1-2.6,13.9,0.1c1.5,1.3,2.5,3.3,3,6.1c0.4,2.7,0.7,6.2,0.7,10.3c0,0,0,61.1,0,61.1c0.2,13.7,14.2,21.6,27,21.6l30.5,0
		c15.3,0,28.4-4.9,37.1-13.9l6.2,13.9H303l17-56.9h0.4l17,56.9h34.8l23.2-96.1H361.4z M225.2,288.7c-10.5,0-16.2-7.7-16.2-20.4
		c0-13.3,5.8-20.8,16.2-20.8c10.3,0,16.2,7.7,16.2,20.8C241.4,281.1,235.5,288.7,225.2,288.7z"/>
	<path class="st3" d="M394.3,314.3L394.3,314.3c-4.5,0-8.3-3.7-8.3-8.3v0c0-4.5,3.7-8.3,8.3-8.3h0c4.5,0,8.3,3.7,8.3,8.3v0
		C402.5,310.6,398.8,314.3,394.3,314.3z"/>
</g>
</svg>
